<svg viewBox="0 0 34 34" xmlns="http://www.w3.org/2000/svg"><path d="M32.428 16.383s-.511.747-.433.881c.078.134.164.482 0 .88s-.306 1.288-.434 1.761c-.127.472-.258 1.338-.432 1.761-.167.402.097.093-.364.776l-6.577-6.19 3.087-8.938c.59.487 1.167.99 1.255 1.145.177.313 1.06 1.293 1.3 1.761.238.468 1.274.937 1.299 1.761.025.824.21 2 .432 2.641.223.64.867 1.32.867 1.32v.441zm-3.898 9.685c-.662.558-2.598 2.642-2.598 2.642s-1.01.525-1.3.88c-.291.355-1.166 1.171-1.732 1.32-.567.15-1-.143-1.3 0-.12.058-1.014.05-2.081.028l2.744-8.343h8.401c-.572.865-1.484 2.925-2.134 3.473zM15.537 30.91c-.644.12-1.227.125-1.732 0-.506-.124-2.342-.87-2.6-.88-.256-.01-1.727-1.077-2.165-1.32-.438-.244-2.054-1.72-2.598-2.202-.545-.48-1.196-1.05-1.3-1.32-.103-.27-.756-.67-.866-1.321-.106-.633-.512-.68-.437-1.272h9.759l2.86 8.284c-.445-.001-.785.006-.92.031zM2.977 16.824c-.107-.449.312-1.31.433-2.202.12-.892.723-1.625.866-2.201.143-.576.65-1.372.866-1.76.216-.39.86-2.037 1.3-2.202.439-.165 1.323-1.636 1.732-1.761.094-.029.233-.076.387-.133l.705 2.857 1.925 6.343-7.73 5.361c-.25-.131-.484-.34-.484-.34s.257-1.41 0-2.201c-.257-.792.107-1.314 0-1.761zm10.38 4.063l-.962.488H7.58v-.488l4.333-3.415 1.444 3.415zm-.48-6.342l-1.926-4.391-.481-2.927 6.257 4.879-3.85 2.439zm7.22 8.294l-1.925 7.318-2.889-7.318h4.814zm-5.295-1.952l-1.444-3.903 3.37-2.439 1.444-.976 3.85 3.415-1.444 4.391-5.776-.488zm9.146-2.44l3.369 2.928h-4.332l.963-2.927zm-1.445-3.414l-2.406-2.927 2.888-1.952 2.407-.976-2.889 5.855zM10.773 4.497c.123.008.14.038.866-.44.726-.479 3.541-1.504 4.33-1.32.79.181 3.57-.108 3.9 0 .328.106 2.478 1.656 3.03 1.76.553.105 2.804 1.62 3.033 1.76.043.028.16.114.32.238h-.139l-2.406.976-5.295 3.415-5.295-3.903-2.745-1.988c.174-.273.342-.502.4-.498zm23.17 12.767c.163-.479-.086-1.21 0-1.762.088-.55-.432-3.961-.432-3.961s-.456-1.867-.866-2.202c-.411-.335-1.658-.847-1.733-1.32-.075-.474-.028-1.185-.433-1.321-.405-.136-1.144-.728-1.3-.88-.155-.152-2.178-1.629-2.598-2.202a7.39 7.39 0 0 0-1.3-1.32c-.287-.22-1.044-.138-1.298-.44-.256-.302-.553-.267-.867-.44-.314-.175-.405-.397-.866-.44-.46-.044-1.102.175-1.3 0-.197-.177.115-.628-.433-.441-.548.186-.292-.132-.866 0-.573.132-.93.064-1.3 0-.367-.065-.472-.595-.865-.44-.394.154-.495-.276-.866 0-.372.274-.92.373-1.3.44s-.885.48-1.299.44c-.414-.04-.447-.244-.866 0-.42.244-1.129.202-1.3.44-.17.238.08.402-.433.44-.512.039-1.19.451-1.3.44-.11-.01-.865.441-.865.441l-1.3.88s-1.132.573-1.299.881c-.167.309-1.176 1.162-1.299 1.32-.123.159-.493.44-.866.88-.373.441-.485 1.1-.866 1.322-.382.222-.18.6-.434.88-.254.282-.245.426-.433.88-.187.455-.428 1.197-.433 1.321-.005.125.196.038 0 .44-.196.403-.392.673-.433.88-.04.21-.215.085-.433.441-.219.357-.117-.033-.434.44-.315.475-.26.672-.432.88-.172.21-.526.605-.434.882.093.276.261 1.35 0 2.201-.26.85.14 2.78 0 3.521-.138.742-.28.777 0 1.321.282.544.33 1.405.866 1.761.537.356.921.166 1.3.88.379.715 3.224 3.73 3.465 3.963.24.233.619 1.279 1.299 1.76.68.483 1.785.865 2.166 1.321.381.457.834.892 1.3.881.464-.012 1.646.598 1.732.44.084-.159 3.031.44 3.031.44s1.907.515 2.166.44c.26-.075 1.732 0 1.732 0l.867-.88s1.004.068 1.298 0c.294-.068 1.378-.406 1.733-.44.356-.035.86-.394 1.3-.44.44-.046 1.636-1.04 2.165-1.322.53-.28 1.344-.86 1.733-1.32.387-.46 1.668-2.09 1.732-2.201.063-.11 1.28-1.274 1.3-1.32.019-.047 1.15-1.423 1.299-1.762.148-.339.842-1.407.866-1.76.023-.355.379-1.86.433-2.201.054-.343-.163-2.604 0-3.082z" fill="currentColor" fill-rule="evenodd"></path></svg>